<svg width="90" height="68" viewBox="0 0 90 68" fill="none" xmlns="http://www.w3.org/2000/svg">
<path d="M90 9.22324V61.382C90 64.772 87.255 67.517 83.865 67.517H69.5438V32.747L45 51.1595L20.4563 32.747V67.5207H6.135C5.32903 67.5207 4.53095 67.3619 3.78637 67.0534C3.0418 66.7448 2.36531 66.2926 1.79557 65.7225C1.22584 65.1524 0.774016 64.4757 0.465923 63.7309C0.157831 62.9861 -0.000491504 62.188 1.14619e-06 61.382V9.22324C1.14619e-06 1.63699 8.65875 -2.69426 14.7263 1.85824L20.4563 6.15949L45 24.5645L69.5438 6.15199L75.2737 1.85824C81.3375 -2.69051 90 1.63699 90 9.22324Z" fill="white"/>
</svg>
