<svg width="90" height="90" viewBox="0 0 90 90" fill="none" xmlns="http://www.w3.org/2000/svg">
<path d="M76.6763 76.695H63.3487V55.8113C63.3487 50.8313 63.2475 44.4225 56.4038 44.4225C49.455 44.4225 48.3937 49.8412 48.3937 55.4437V76.695H35.0662V33.75H47.8688V39.6037H48.0412C49.83 36.2287 54.18 32.6663 60.6787 32.6663C74.1825 32.6663 76.68 41.5538 76.68 53.1225V76.695H76.6763ZM20.0137 27.8738C15.7237 27.8738 12.2775 24.4013 12.2775 20.13C12.2775 15.8625 15.7275 12.3938 20.0137 12.3938C24.2887 12.3938 27.7538 15.8625 27.7538 20.13C27.7538 24.4013 24.285 27.8738 20.0137 27.8738ZM26.6962 76.695H13.3313V33.75H26.6962V76.695ZM83.3438 0H6.64125C2.97 0 0 2.9025 0 6.48375V83.5162C0 87.1012 2.97 90 6.64125 90H83.3325C87 90 90 87.1012 90 83.5162V6.48375C90 2.9025 87 0 83.3325 0H83.3438Z" fill="white"/>
</svg>
